<svg enable-background="new 0 0 366 43" viewBox="0 0 366 43" xmlns="http://www.w3.org/2000/svg"><path d="m11.8 42h5v-13.2h10.3v-5h-10.3v-7h15.9v-5h-20.9zm74.3-11c0 5-4.2 7.5-12.6 7.5-8.5 0-12.7-2.5-12.7-7.5v-19.2h-5v20.5c0 3.1 1.5 5.6 4.7 7.6s7.6 3 13 3 9.8-1 13-3 4.7-4.5 4.7-7.6v-20.5h-5v19.2zm-52.9-30.9h-33.1v41.9h5v-36.9h28.2c5.1 0 9.3 4.2 9.3 9.3s-4.2 9.3-9.3 9.3v5c7.9 0 14.4-6.4 14.4-14.4-.1-7.8-6.6-14.2-14.5-14.2zm75 28.4h18.4v-4.5h-18.4v-7.9h26.4v-4.4h-31.5v30.3h32.6v-4.4h-27.6v-9.1zm254.4-2c-2.1-1.3-5.7-2.2-10.7-2.7-3.8-.4-7.3-.7-10.7-1-2.9-.5-4.4-1.6-4.4-3.4 0-2.9 3.6-4.3 11-4.3 7.8 0 15.1 2.9 17.2 4.2v-4.6c-3.5-1.8-11-3.9-17.3-3.9-5.2 0-9.2.9-12.1 2.5-2.7 1.6-4 3.8-4 6.6 0 2.4.8 4.1 2.4 5.2 1.7 1.2 4.5 2 8.3 2.4 1 .1 3.7.3 8 .5 2.9.1 4.9.4 6.3.8 2.6.7 4 2.1 4 4 0 1.7-1.1 3.1-3.2 4.1-2 .9-4.8 1.4-8.4 1.4-5.6 0-12.2-1.8-17.3-4.4v4.7c4.7 2.4 12 3.8 17.4 3.8 5.6 0 9.9-.9 12.8-2.7 2.9-1.7 4.2-4.1 4.2-7.3-.2-2.5-1.3-4.5-3.5-5.9zm-47.5 12.4-22.1-27.1h-8.3v30.2h5v-27.1l22.1 27.1h8.3v-30.2h-5zm-47.7-23.9c-3.6-2.7-8-4.1-13.2-4.1s-9.7 1.4-13.3 4.1c-4.1 3.1-6.1 7.1-6.1 11.9 0 4.9 2 9 6.1 12 3.5 2.7 8 4 13.4 4 5.3 0 9.8-1.3 13.3-4 4-3 6.1-7.1 6.1-12-.2-4.8-2.3-8.8-6.3-11.9zm-3 19.9c-2.6 2-6.1 3-10.3 3s-7.7-1-10.3-3c-2.7-2.1-4.1-4.7-4.1-8 0-3.2 1.4-5.8 4.1-7.9s6.1-3.1 10.3-3.1c4.1 0 7.5 1 10.2 3.1 2.8 2.1 4.1 4.7 4.1 7.9.1 3.3-1.3 5.9-4 8zm-89-4.7c5-1.1 7.4-4 7.4-9 0-2.9-.9-5.1-2.8-6.8s-4.4-2.6-7.6-2.6h-24.8v30.2h5v-11.5h16.4l8.2 11.5h5.7l-8.3-11.7zm-22.7-4.1v-9.9h18.5c5.3 0 6.5 2.8 6.5 5.1 0 2.2-1.1 4.8-6.1 4.8zm43.4 15.9h5v-13.5h18.4v-4.5h-18.4v-7.9h26.4v-4.4h-31.5v30.3z" fill="#ad835d"/></svg>